<svg xmlns="http://www.w3.org/2000/svg" width="41" height="41" viewBox="0 0 41 41">
  <g id="cEUR_Color_S_Circle" data-name="cEUR Color S Circle" transform="translate(-0.037)">
    <circle id="Ellipse_388" data-name="Ellipse 388" cx="20.5" cy="20.5" r="20.5" transform="translate(0.037)" fill="#457fcd"/>
    <path id="Path_677" data-name="Path 677" d="M228.9,234.983l.74-2.465h-6.614V231.9h6.82l.739-2.465H223.8a4.143,4.143,0,0,1,3.615-1.725,6.332,6.332,0,0,1,3.41,1.027l.822-2.67A8.517,8.517,0,0,0,227.419,225a6.974,6.974,0,0,0-6.7,4.4h-1.808l-.781,2.383h2.1v.863h-1.315l-.781,2.383h2.629a6.849,6.849,0,0,0,6.614,4.355,7.214,7.214,0,0,0,4.108-1.232V234.9a5.817,5.817,0,0,1-4.067,1.767,4.242,4.242,0,0,1-3.574-1.684Zm-9.243,10.106a6.529,6.529,0,0,1-2.67-12.489v-3.328a9.658,9.658,0,1,0,11.955,11.955h-3.328A6.5,6.5,0,0,1,219.654,245.089Z" transform="translate(-201.373 -215.839)" fill="#457fcd"/>
    <path id="Path_678" data-name="Path 678" d="M229.243,257.39a9.262,9.262,0,0,0,8.709-6.162h-2.506a6.881,6.881,0,0,1-6.2,3.862,6.961,6.961,0,0,1-6.943-6.943,6.881,6.881,0,0,1,3.862-6.2v-2.506a9.24,9.24,0,0,0,3.081,17.953Zm7.723-8.833a7.041,7.041,0,0,0,3.7-1.027v-2.136a5.978,5.978,0,0,1-3.656,1.274,4.515,4.515,0,0,1-4.273-2.506H238.2l.493-1.643h-6.45a3.985,3.985,0,0,1-.041-.7,4.464,4.464,0,0,1,.041-.739h6.9l.493-1.643h-6.943a4.461,4.461,0,0,1,4.314-2.547,6.6,6.6,0,0,1,3.163.822l.575-1.849a8.2,8.2,0,0,0-3.738-.863,6.555,6.555,0,0,0-6.409,4.4h-1.808l-.493,1.561h1.972a6.07,6.07,0,0,0-.041.863,5.508,5.508,0,0,0,.041.822h-1.479L228.3,244.2h2.342A6.38,6.38,0,0,0,236.967,248.557Z" transform="translate(-210.962 -225.428)" fill="#fff"/>
  </g>
</svg>
