<svg id="Group_919" data-name="Group 919" xmlns="http://www.w3.org/2000/svg" xmlns:xlink="http://www.w3.org/1999/xlink" width="41" height="41" viewBox="0 0 41 41">
  <defs>
    <clipPath id="clip-path">
      <circle id="Ellipse_508" data-name="Ellipse 508" cx="20.5" cy="20.5" r="20.5" transform="translate(0 -0.001)" fill="#fff" stroke="#707070" stroke-width="1"/>
    </clipPath>
  </defs>
  <g id="Mask_Group_24" data-name="Mask Group 24" transform="translate(0 0.001)" clip-path="url(#clip-path)">
    <g id="moo" transform="translate(0 -0.355)">
      <g id="Group_904" data-name="Group 904">
        <path id="Path_891" data-name="Path 891" d="M0,20.678V0H41.356V41.356H0ZM22.746,35.236a1.675,1.675,0,0,1,.548-.186,3.339,3.339,0,0,0,.765-.269,1.115,1.115,0,0,1,.527-.145,6.187,6.187,0,0,0,2.1-1.23,1.413,1.413,0,0,1,.527-.321.519.519,0,0,0,.289-.217,4.774,4.774,0,0,1,.393-.486A.92.92,0,0,0,28.122,32a.456.456,0,0,1,.165-.269,3.7,3.7,0,0,0,.775-1.964c.114-.806.1-.91-.083-1.282a4.606,4.606,0,0,1-.279-.693c-.031-.165-.114-.289-.165-.289s-.1-.093-.1-.207a.728.728,0,0,0-.217-.424c-.176-.176-.207-.3-.155-.693a20.416,20.416,0,0,0,.155-2.5c-.01-.372-.021-1.3-.031-2.068l-.01-1.4.383-.031a1.559,1.559,0,0,1,.693.124,1.084,1.084,0,0,0,1.106.01.721.721,0,0,1,.331-.155c.176,0,.527-.414.538-.62a.405.405,0,0,1,.2-.279c.289-.176.362-.755.155-1.292a2.416,2.416,0,0,0-1.2-1.241c-.217-.093-.393-.227-.393-.289s-.186-.1-.414-.1-.414-.041-.414-.1-.124-.1-.279-.1a1.026,1.026,0,0,1-.548-.207,1.058,1.058,0,0,0-.548-.207.708.708,0,0,1-.8-.734c0-.289.041-.4.155-.4.083,0,.155-.041.155-.1s.072-.1.155-.1a.158.158,0,0,0,.155-.145c0-.083.165-.279.362-.434s.362-.331.362-.4a.436.436,0,0,1,.155-.258.473.473,0,0,0,.155-.31.258.258,0,0,1,.145-.238,2.8,2.8,0,0,0,.486-.765,3.3,3.3,0,0,1,.424-.734.441.441,0,0,0,.083-.31A3.943,3.943,0,0,1,30.2,9.357a2.315,2.315,0,0,0,.2-.775,2.931,2.931,0,0,1,.114-.724c.352-1.148.321-1.323-.372-2-.362-.352-.455-.393-.775-.341-.445.062-.693.331-1.665,1.778a7.238,7.238,0,0,1-.486.61,1.657,1.657,0,0,0-.331.434,1.418,1.418,0,0,1-.414.414c-.631.527-1,.476-1.985-.289-.289-.238-.476-.279-1.272-.331a2.54,2.54,0,0,0-2.037.558c-.269.2-1.013.269-1.013.1a3.571,3.571,0,0,0-1.592-.734,3.618,3.618,0,0,0-2.543.982.753.753,0,0,1-.486.155c-.269,0-.434-.093-.755-.414a1.661,1.661,0,0,1-.414-.569.149.149,0,0,0-.134-.155,2.513,2.513,0,0,1-.8-.879,7.84,7.84,0,0,0-.982-1.416,1.18,1.18,0,0,0-.641-.186c-.362,0-.5.062-.879.414-.4.383-.445.465-.434.889a1.226,1.226,0,0,0,.124.579.521.521,0,0,1,.124.331,14.029,14.029,0,0,0,.589,2.409,1.817,1.817,0,0,1,.134.517.818.818,0,0,0,.155.4.9.9,0,0,1,.155.486c0,.155.041.279.093.279A9.941,9.941,0,0,1,13,13.472a.732.732,0,0,0,.341.3.5.5,0,0,1,.269.383c.052.238.124.321.341.341.238.031.269.083.3.507.031.476.031.476-.414.641a2.518,2.518,0,0,1-.569.176,3.682,3.682,0,0,0-.693.258,3.088,3.088,0,0,1-1.034.258c-.31,0-.476.052-.517.155a.758.758,0,0,1-.341.289,1.906,1.906,0,0,0-1.158,1.747,1.393,1.393,0,0,0,.341,1.013c.548.755,1.582,1.137,2.068.775a1.514,1.514,0,0,1,.765-.155h.569l-.072,1.065a18.825,18.825,0,0,0-.062,4.239l.134,1.024-.548,1.086a2.865,2.865,0,0,0-.548,1.975c.021.941,0,.889.806,2.3a6.677,6.677,0,0,0,1.354,1.447,9.178,9.178,0,0,0,2.347,1.344.729.729,0,0,1,.424.155.7.7,0,0,0,.424.155,1.689,1.689,0,0,1,.6.145,3.229,3.229,0,0,0,.538.2,34.888,34.888,0,0,0,4.084-.052Z" fill="#6a9ce9"/>
        <path id="Path_892" data-name="Path 892" d="M130.888,244.509a11.368,11.368,0,0,1-2.895-.527c-1.086-.383-1.447-.579-1.727-.951a.67.67,0,0,0-.465-.31c-.341,0-1-.724-1.385-1.53a3.914,3.914,0,0,1-.145-3.133,3.265,3.265,0,0,1,1.127-1.7,4.579,4.579,0,0,1,1.82-1.272c.145-.052.434-.176.651-.279a15.012,15.012,0,0,1,3.112-.641,15.583,15.583,0,0,1,3.991.434,6.423,6.423,0,0,1,2.761,1.272,8.112,8.112,0,0,0,.62.548,2.853,2.853,0,0,1,.755,1.158c0,.093.041.176.083.176.186,0,.331.755.331,1.778,0,.951-.031,1.127-.217,1.365a2.121,2.121,0,0,0-.31.61,2.238,2.238,0,0,1-1.065,1.168,2.252,2.252,0,0,0-.682.445,3.9,3.9,0,0,1-1.758.92A10.807,10.807,0,0,1,130.888,244.509Zm-1.189-5.883c.558-.507.6-.693.248-1.189-.414-.6-.724-.744-1.189-.527-.879.424-1.086,1.1-.486,1.634.631.569.879.579,1.427.083Zm5.655-.072a.91.91,0,0,0,.145-1.065c-.114-.362-.2-.445-.548-.548a.939.939,0,0,0-1.22.352c-.341.548-.3.941.114,1.292a1.082,1.082,0,0,0,.817.31c.414,0,.5-.041.693-.341Z" transform="translate(-111.192 -209.945)" fill="#6a9ce9"/>
        <path id="Path_893" data-name="Path 893" d="M169,267.362c0-.341.021-.362.362-.362s.362.021.362.362-.021.362-.362.362S169,267.7,169,267.362Z" transform="translate(-151.527 -239.395)" fill="#6a9ce9"/>
        <path id="Path_894" data-name="Path 894" d="M145.8,145.321a2.4,2.4,0,0,1-.527-.4.573.573,0,0,0-.424-.165.749.749,0,0,1-.5-.207.621.621,0,0,0-.372-.207c-.289,0-.507-.114-.507-.269,0-.1-.1-.124-.455-.083a2.064,2.064,0,0,1-1-.124,10.284,10.284,0,0,0-4.2.052,11.12,11.12,0,0,1-1.21.217.365.365,0,0,0-.31.155.249.249,0,0,1-.217.155,10.949,10.949,0,0,0-1.975.941.918.918,0,0,1-.527.072l-.393-.031-.031-1.323a20.929,20.929,0,0,1,.238-3.536c.238-1.83.3-2.223.372-2.223.041,0,.093-.248.124-.538s.145-1.055.269-1.685.248-1.344.29-1.6c.072-.4.124-.465.372-.5.29-.031.9.176.9.31a1.236,1.236,0,0,0,.434.3,1.821,1.821,0,0,0,1.727-.1c.6-.279.848-.279,1.313.041a1.333,1.333,0,0,0,1.592,0c.445-.321.744-.321,1.385,0,.579.3,1.313.341,1.51.1a.5.5,0,0,1,.321-.155.926.926,0,0,0,.465-.258.944.944,0,0,1,.62-.258c.31,0,.352.031.352.258,0,.145.052.258.1.258s.1.155.1.341a9.968,9.968,0,0,0,.207,1.3,9.573,9.573,0,0,1,.207,1.468,1.049,1.049,0,0,0,.093.548c.1.072.186.507.331,1.716.052.486.145,1.23.2,1.654s.134,1.51.165,2.409l.062,1.623-.341-.01A1.837,1.837,0,0,1,145.8,145.321Zm-9.719-5.428c.238-.372.3-.414.682-.414.31,0,.434.041.476.186.083.31.517.558.744.434.207-.1.207-.114.01-.445a2.163,2.163,0,0,0-1.292-.8,2.046,2.046,0,0,0-.682.393c-.362.279-.5.455-.507.651C135.516,140.441,135.744,140.441,136.085,139.893Zm6.565-.176c.134-.155.931-.176.931-.031a.11.11,0,0,0,.124.1c.072,0,.227.124.352.289.217.258.248.269.4.1s.165-.186-.041-.569a1.743,1.743,0,0,0-1.137-.755,2.184,2.184,0,0,0-1.23.744c-.207.321-.207.352-.041.527s.176.186.352-.052C142.464,139.945,142.6,139.78,142.65,139.717Z" transform="translate(-119.387 -120.146)" fill="#6a9ce9"/>
        <path id="Path_895" data-name="Path 895" d="M98.321,162.874A.906.906,0,0,1,98,162.1c0-.331.041-.445.155-.445s.155-.1.155-.352c0-.331.031-.372.5-.527.269-.093.631-.238.8-.31a3.526,3.526,0,0,1,1.572-.465h.465l-.072.91c-.124,1.613-.31,1.871-1.6,2.14C98.889,163.278,98.693,163.257,98.321,162.874Z" transform="translate(-87.868 -143.457)" fill="#6a9ce9"/>
        <path id="Path_896" data-name="Path 896" d="M263.51,160.257a3.791,3.791,0,0,1-.817-.352,4.853,4.853,0,0,1-.341-1.634c-.052-.362-.114-.548-.207-.548s-.145-.124-.145-.362c0-.341.021-.362.362-.362.248,0,.362.052.362.155,0,.083.093.155.207.155a7.817,7.817,0,0,1,1.985.734,1.172,1.172,0,0,0,.445.093c.186,0,.258.052.258.2a.314.314,0,0,0,.155.258c.238.083.207,1.065-.041,1.468a.721.721,0,0,1-.589.383,2.592,2.592,0,0,1-1.634-.186Z" transform="translate(-234.912 -140.768)" fill="#6a9ce9"/>
        <path id="Path_897" data-name="Path 897" d="M159.113,89.2c-.548-.207-.765-.372-.8-.589a.522.522,0,0,0-.227-.341c-.145-.093-.207-.072-.31.083-.445.724-.548.837-.827.868-.424.052-.993-.072-.993-.207a.789.789,0,0,0-.227-.341,5.543,5.543,0,0,1-.372-.414c-.134-.155-.155-.155-.341.01a.588.588,0,0,0-.2.341c-.01.393-.269.538-1.075.6-.7.052-.817.041-1.127-.176a2.716,2.716,0,0,1-.931-2.233,2.461,2.461,0,0,1,.248-1.282,2.343,2.343,0,0,1,2.471-1.551c.558,0,.713.041.93.238a1.844,1.844,0,0,0,.445.31c.093.031.176.114.176.176s.114.1.248.1a.448.448,0,0,1,.321.1c.072.124.476-.062.6-.269a.4.4,0,0,1,.331-.145c.155,0,.258-.062.258-.145,0-.331,1.489-.507,2.14-.258a2.9,2.9,0,0,1,1.282.982,6.2,6.2,0,0,1,.321,2.657,1.524,1.524,0,0,0-.165.434c-.093.362-.248.569-.424.569a1.071,1.071,0,0,0-.445.31A1.088,1.088,0,0,1,159.113,89.2Z" transform="translate(-136.005 -75.288)" fill="#6a9ce9"/>
        <path id="Path_898" data-name="Path 898" d="M253.11,66.958a11.037,11.037,0,0,1-.248-2.006l-.062-1.406.993-1.024a6.19,6.19,0,0,0,.993-1.179.762.762,0,0,1,.248-.4,2.638,2.638,0,0,0,.434-.589c.165-.3.248-.352.558-.352.289,0,.383.052.5.279a2.292,2.292,0,0,1-.021,1.51,3.456,3.456,0,0,0-.207.868,3.285,3.285,0,0,1-.259.972,2.072,2.072,0,0,0-.217.713.961.961,0,0,1-.155.476.783.783,0,0,0-.155.4.952.952,0,0,1-.207.465,1.032,1.032,0,0,0-.207.352,1.421,1.421,0,0,1-.258.434,1.321,1.321,0,0,0-.258.445c0,.062-.093.114-.2.114-.134,0-.217.083-.238.238-.021.186-.1.238-.445.258l-.414.031Z" transform="translate(-226.663 -53.797)" fill="#6a9ce9"/>
        <path id="Path_899" data-name="Path 899" d="M111.119,66.844a2.431,2.431,0,0,1-.383-.61,1.75,1.75,0,0,0-.3-.465c-.341-.372-.569-1.044-1.106-3.184a4.524,4.524,0,0,1-.248-2.264c.062-.3.093-.321.517-.321s.455.01.455.31c0,.2.052.31.145.31.176,0,.579.527.579.765a.161.161,0,0,0,.155.165.4.4,0,0,1,.269.227,8.584,8.584,0,0,0,.889,1l.775.786-.072,1.489c-.062,1.406-.083,1.51-.341,1.83a.7.7,0,0,1-.651.352c-.3,0-.424-.072-.682-.393Z" transform="translate(-97.75 -53.797)" fill="#6a9ce9"/>
      </g>
      <g id="Group_905" data-name="Group 905" transform="translate(9.157 5.066)">
        <path id="Path_900" data-name="Path 900" d="M99.674,79.666a5.132,5.132,0,0,0-.993-.072,3.277,3.277,0,0,1-1.344-.207,2.436,2.436,0,0,0-.734-.2c-.176,0-.341-.052-.362-.124s-.186-.134-.372-.145a9.142,9.142,0,0,1-2.44-1.385,6.677,6.677,0,0,1-1.354-1.447,4.385,4.385,0,0,1-.868-3.329,1.957,1.957,0,0,1,.093-.7,4.509,4.509,0,0,0,.548-.92l.465-.92-.134-.941a12.352,12.352,0,0,1,.041-3.371c.1-.734.031-.879-.476-.879-.217,0-.372-.062-.4-.155s-.217-.155-.558-.155a2.318,2.318,0,0,1-1.623-.682c-.1-.145-.289-.383-.4-.538-.2-.248-.217-.372-.165-1.106A3.189,3.189,0,0,1,88.8,61.3a2.489,2.489,0,0,1,.858-.827,1.744,1.744,0,0,0,.476-.362c.424-.4.465-.414.734-.248.134.083.31.052.786-.155a4.352,4.352,0,0,1,.713-.269c.269,0,1-.352,1-.476,0-.217-.227-.29-.331-.1-.093.165-.114.165-.3,0-.145-.124-.165-.207-.083-.31A.4.4,0,0,0,92.385,58c-.083,0-.207-.114-.279-.248a9.338,9.338,0,0,0-1.127-1.613c-.052,0-.093-.124-.093-.279a.9.9,0,0,0-.155-.486.818.818,0,0,1-.155-.4,1.817,1.817,0,0,0-.134-.517,14.365,14.365,0,0,1-.589-2.419c0-.124-.041-.258-.1-.289a.362.362,0,0,1-.1-.269c0-.114-.041-.186-.093-.145-.093.052-.083-.207.052-1.024.072-.465,1.024-1.3,1.292-1.137a.141.141,0,0,0,.2-.072c.072-.114.134-.114.341,0a.535.535,0,0,0,.362.072c.062-.041.217.041.352.176a9.26,9.26,0,0,1,1.013,1.468c0,.165.682.879.8.837.083-.031.134.021.134.145a1.447,1.447,0,0,0,.424.631l.414.424.279-.248a3.6,3.6,0,0,1,2.761-.91,2.979,2.979,0,0,1,1.851.672c.155.155.186.155.445-.031a6.721,6.721,0,0,1,.755-.434,1.989,1.989,0,0,0,.538-.341c.041-.072.114-.072.227.021a3.131,3.131,0,0,0,1.106.165c.848.041.982.072,1.3.331.2.155.5.372.662.476l.3.2.414-.352a1.535,1.535,0,0,0,.414-.424,1.657,1.657,0,0,1,.331-.434,7.238,7.238,0,0,0,.486-.61c.424-.62.6-.868.92-1.272.2-.238.321-.486.279-.548s.031-.1.155-.1c.145,0,.2.041.145.134s-.031.083.083-.01c.31-.248,1.034-.052,1.5.393.7.672.8,1.251.393,2.45-.124.352-.134.507-.041.61s.083.145,0,.145c-.062,0-.114.1-.114.238a2.114,2.114,0,0,1-.227.672c-.227.424-.227.455-.052.579.186.145.248.476.072.476-.052,0-.134-.083-.2-.176-.083-.155-.1-.145-.165.1a1.126,1.126,0,0,0-.021.486c.031.124,0,.207-.072.207s-.238.258-.372.579a3.631,3.631,0,0,1-.486.827.881.881,0,0,0-.238.393.43.43,0,0,1-.155.269.436.436,0,0,0-.155.258c0,.072-.165.258-.362.4s-.362.352-.362.434a.158.158,0,0,1-.155.145c-.083,0-.155.052-.155.1s-.072.1-.155.1c-.238,0-.186.165.1.352a.648.648,0,0,0,.465.114.686.686,0,0,1,.548.2,1.36,1.36,0,0,0,.62.269c.155,0,.279.041.279.083s.155.062.352.041c.269-.031.383.01.465.165a1.141,1.141,0,0,0,.445.341,2.264,2.264,0,0,1,1.3,2.275c-.031.548-.289,1.1-.434.951-.041-.041-.052-.01-.021.072.062.176-.372.724-.579.724a.721.721,0,0,0-.331.155,2.473,2.473,0,0,1-1.727,0c-.507-.269-.538-.155-.455,1.23.052.682.083,1.623.072,2.078s-.01,1.075-.01,1.365a2.134,2.134,0,0,1-.114.755c-.134.248.031.641.248.558.1-.041.124.021.093.207a.467.467,0,0,0,.114.424.565.565,0,0,1,.165.321,2.006,2.006,0,0,0,.207.558,3.349,3.349,0,0,1,.093,2.1,3.782,3.782,0,0,1-.713,1.778c-.207.124-.331.589-.186.682.072.041.093.114.052.165s-.124.01-.186-.072c-.083-.134-.124-.124-.248.052-.083.114-.2.258-.258.331a.54.54,0,0,0-.1.227c0,.062-.072.083-.155.052s-.321.072-.548.269a12.4,12.4,0,0,1-1.024.734c-.362.217-.651.465-.651.558,0,.176-.238.207-.527.052a.348.348,0,0,0-.424.041,4.351,4.351,0,0,1-.775.269c-.3.072-.548.165-.548.227s-.331.083-.8.072a11.084,11.084,0,0,0-1.375.052,1.817,1.817,0,0,1-.62.021Zm1.8-.631a6.718,6.718,0,0,0,1.189-.217c.031-.041-.072-.041-.248,0s-1.075.1-2.016.145c-1.1.041-1.561.093-1.292.134a7.475,7.475,0,0,0,2.368-.062Zm-3.091-.155a2.784,2.784,0,0,0-.517-.083l-.207-.01.207.093a1.548,1.548,0,0,0,.517.083h.31Zm3.722-.806a6.5,6.5,0,0,0,3.05-1.272,2.252,2.252,0,0,1,.682-.445,2.238,2.238,0,0,0,1.065-1.168,2.122,2.122,0,0,1,.31-.61c.176-.227.217-.424.217-1.055,0-.755-.165-1.468-.331-1.468-.041,0-.083-.083-.083-.176a2.853,2.853,0,0,0-.755-1.158,8.1,8.1,0,0,1-.62-.548c-.693-.641-2.7-1.478-2.885-1.2-.052.1-.1.093-.207-.052a8.168,8.168,0,0,0-3.091-.434,18.281,18.281,0,0,0-2.936.569c-.279.1-.289.134-.134.248.186.145.145.269-.093.269a.149.149,0,0,1-.134-.155.15.15,0,0,0-.145-.155c-.207,0-.3.176-.155.269.083.041.072.093-.021.155-.207.134-.3.114-.3-.062,0-.083-.041-.155-.093-.155a7.775,7.775,0,0,0-1.83,1.468,4.027,4.027,0,0,0-1.034,2.792c.145,1.1,1.179,2.667,1.747,2.667a.67.67,0,0,1,.465.31c.806,1.1,4.942,1.861,7.31,1.365Zm-9.988-4.642c-.01-.62-.041-.827-.093-.651-.145.445-.093,1.551.062,1.551A4.672,4.672,0,0,0,92.116,73.431Zm16.15-.476c-.083-.383-.093-.321-.093.5,0,.868.01.9.1.434A2.543,2.543,0,0,0,108.265,72.956Zm-14.95-2.967c-.145-.041-.227-.186-.279-.465-.248-1.416.1-5.17.806-8.726a6.818,6.818,0,0,0,.2-1.334c-.031-.031-.052.021-.052.1s-.2.258-.434.383c-.414.2-.424.217-.155.217s.279.031.279.393a15.041,15.041,0,0,1-.2,1.51c-.176.993-.238,1.158-.5,1.365a1.147,1.147,0,0,1-.5.258c-.114.01-.041.041.155.083l.362.062v.775c-.01.424-.052,1.354-.093,2.068A24.518,24.518,0,0,0,92.9,69.3l.072,1.313.279-.279C93.512,70.05,93.512,70.04,93.315,69.988Zm14.051-1.861c.01-.941-.031-2.3-.083-3.019l-.093-1.323h.7l-.465-.248c-.331-.176-.486-.331-.538-.538s-.062-.186-.021.114a28.673,28.673,0,0,1,.331,4.921l-.031,1.9-.31.062c-.165.041-.227.072-.124.083s.238.134.3.3l.114.279.1-.414A14.072,14.072,0,0,0,107.366,68.127Zm-.868-1.561c-.072-.434-.145-.972-.165-1.189a11.255,11.255,0,0,0-.465-3.1,1.05,1.05,0,0,1-.093-.548,9.57,9.57,0,0,0-.207-1.468,9.968,9.968,0,0,1-.207-1.3c0-.186-.041-.341-.093-.341s-.114-.124-.134-.269l-.031-.269-.289.269a.986.986,0,0,1-.455.269.558.558,0,0,0-.331.145,2.1,2.1,0,0,1-.786.2,1.785,1.785,0,0,1-1.22-.227l-.589-.289-.321.238a2.085,2.085,0,0,1-2.285-.062c-.145-.1-.3-.165-.352-.114a5.113,5.113,0,0,1-.641.3,1.893,1.893,0,0,1-1.086.155c-.548-.062-1.313-.372-1.313-.538,0-.083-.186-.155-.465-.2-.052-.01-.1.062-.1.165a1.419,1.419,0,0,1-.083.383,25.156,25.156,0,0,0-.527,3.081.819.819,0,0,1-.155.579.231.231,0,0,0-.093.227.446.446,0,0,1-.041.321A4.688,4.688,0,0,0,93.822,64a5.369,5.369,0,0,1-.165,1.117,17.458,17.458,0,0,0-.093,3.774c.062.041.279-.041.5-.165a13.848,13.848,0,0,1,1.84-.868c.186-.062.176-.083-.083-.134l-.289-.062.321-.145a.629.629,0,0,1,.589-.021.544.544,0,0,0,.362.052.9.9,0,0,1,.341-.093c.124-.021.476-.083.786-.145a12.638,12.638,0,0,1,1.954-.248,8.351,8.351,0,0,1,2.275.217,3.543,3.543,0,0,0,1,.165c.362.01.651.052.641.1-.01.134.238.269.486.269a.663.663,0,0,1,.4.207c.2.217.775.289.775.1,0-.052.072-.1.155-.1.186,0,.207.279.031.341-.083.021.021.134.227.258.227.145.383.186.424.114s.1,0,.155.134C106.6,69.275,106.632,67.445,106.5,66.566Zm-8.178,1.5c.1-.093-.579-.031-.713.072-.114.072-.041.083.258.031A2.523,2.523,0,0,0,98.319,68.065Zm4.353.062a2.109,2.109,0,0,0-.465-.083c-.165,0-.155.021.052.083a2.109,2.109,0,0,0,.465.083C102.889,68.21,102.879,68.189,102.672,68.127Zm-1.086-.207a12.3,12.3,0,0,0-2.895,0c-.186.041.4.083,1.4.083C101.121,68,101.71,67.972,101.586,67.921Zm-9.274-3.329c.041-.217-.279-.248-.62-.072-.176.093-.186.134-.072.207C91.847,64.871,92.271,64.788,92.312,64.591Zm17.266-.465a1.385,1.385,0,0,0-.414,0c-.134.021-.052.041.176.041S109.672,64.157,109.579,64.126Zm-18.145-.962c.92-.2,1.2-.507,1.272-1.385.031-.289.072-.631.1-.755.072-.341-.207-.3-1.354.227-.165.072-.538.217-.817.31-.465.176-.5.2-.434.486.052.248.021.321-.145.362-.289.072-.258.248.114.631.227.227.393.31.548.279.114-.031.445-.093.713-.155Zm18.073.1c.238,0,.61-.558.61-.91a.281.281,0,0,0-.2-.3c-.134-.031-.176-.114-.145-.248.041-.155,0-.2-.207-.2-.145,0-.279.052-.3.124s-.1.083-.176.041c-.114-.072-.114-.1,0-.176s.093-.093-.062-.145a4.1,4.1,0,0,1-.517-.207,3.487,3.487,0,0,0-1.365-.424,1.455,1.455,0,0,0,.052.662,5.521,5.521,0,0,1,.124.806.743.743,0,0,0,.134.383,3.944,3.944,0,0,0,1.706.631,1.622,1.622,0,0,1,.341-.041Zm-20.079-.744c0-.465-.021-.507-.1-.3-.093.227-.041.837.072.837A1.717,1.717,0,0,0,89.428,62.524Zm17.328-.5c-.041-.238-.093-.4-.124-.372a1.072,1.072,0,0,0,.021.476c.041.238.093.4.124.372A1.072,1.072,0,0,0,106.756,62.027Zm.155-1.861.362-.062-.383-.072a1.044,1.044,0,0,1-.558-.31c-.165-.227-.165-.227-.1.083.041.176.1.517.145.775l.062.465.062-.414C106.549,60.249,106.58,60.218,106.911,60.166ZM94.349,58.316c.041-.155,0-.176-.258-.134-.289.041-.31.062-.155.217a1.212,1.212,0,0,1,.165.589l.01.4.093-.455a5.761,5.761,0,0,1,.145-.62Zm12.1-.021c.165-.062.145-.083-.124-.083s-.352-.072-.434-.29c-.1-.258-.114-.269-.062-.031.031.145.114.538.186.879l.124.62.052-.507c.041-.383.1-.527.258-.589Zm-8.943.052a1.115,1.115,0,0,0-.434-.031c-.362.01-.393.021-.186.083C97.12,58.471,97.5,58.44,97.5,58.347Zm2.947.062c.155-.062.093-.093-.258-.093s-.414.031-.258.093a.405.405,0,0,0,.517,0Zm3,0c.155-.062.093-.093-.258-.093s-.414.031-.258.093a.406.406,0,0,0,.517,0Zm-4.5-.486c0-.186-.134-.548-.2-.548-.041,0-.124.145-.186.31-.114.289-.1.31.134.31C98.836,58,98.95,57.964,98.95,57.923Zm2.709-.29c-.052-.321-.227-.455-.227-.186a.493.493,0,0,1-.124.321c-.093.093-.062.124.145.124C101.679,57.892,101.71,57.85,101.659,57.633Zm1.964-.352a.628.628,0,0,1,.341-.227c.269-.052.486-.486.424-.868-.031-.165-.021-.248.01-.176.1.258.217.01.134-.321a2.217,2.217,0,0,1-.021-.693c.041-.31.031-.341-.176-.279-.114.031-.217.01-.217-.041s.072-.093.155-.093c.362,0-.062-.765-.641-1.168a1.932,1.932,0,0,0-1.882-.372c-.258.093-.31.155-.258.321.052.186.031.2-.248.134-.217-.041-.341-.021-.4.083-.186.331-1.065.527-1.22.279a.448.448,0,0,0-.321-.1c-.134,0-.248-.052-.248-.1s-.083-.145-.176-.176a1.844,1.844,0,0,1-.445-.31,1.871,1.871,0,0,0-2.223.414,3.817,3.817,0,0,0-.786,1.654c.01.093.01.279.021.414a2.568,2.568,0,0,0,.879,1.716.9.9,0,0,0,.837.165c.476-.072.744-.269.755-.558.01-.455.868-.724,1.158-.362.072.093.238.269.372.4a.789.789,0,0,1,.227.341c0,.165.517.248.693.114a2.007,2.007,0,0,0,.341-.517c.207-.393.372-.507.755-.507a.651.651,0,0,1,.589.527c0,.2.238.372.775.558A.6.6,0,0,0,103.623,57.282Zm1.985-.269a3.349,3.349,0,0,1-.145-.951,6.914,6.914,0,0,0-.083-1.013c-.052-.331-.083-.186-.124.724a6.669,6.669,0,0,1-.145,1.313c-.062.134-.01.176.269.217.186.021.352.052.362.052A3.268,3.268,0,0,0,105.608,57.013Zm.972.01c.031-.217.072-.269.238-.217.114.041.2.021.2-.052a1.334,1.334,0,0,1,.258-.455,1.421,1.421,0,0,0,.258-.434,1.031,1.031,0,0,1,.207-.352.936.936,0,0,0,.207-.445.953.953,0,0,1,.165-.434.907.907,0,0,0,.124-.569c-.031-.165.01-.321.072-.352a3.021,3.021,0,0,0,.465-1.406,1.058,1.058,0,0,0-.207-.548.981.981,0,0,1-.207-.372c0-.2.165-.124.31.145.165.3.269.258.362-.155.062-.279-.124-.931-.258-.931a1.146,1.146,0,0,0-.248.352,2.639,2.639,0,0,1-.434.589.762.762,0,0,0-.248.4,6.128,6.128,0,0,1-.982,1.168l-.993,1.013.062,1.106c.072,1.137.331,2.316.517,2.264C106.508,57.323,106.559,57.178,106.58,57.023ZM95.166,57.1a6.947,6.947,0,0,1-.145-1.323c-.062-1.292-.207-1.137-.207.227a2.247,2.247,0,0,1-.1.91c-.227.145-.1.362.217.362.269,0,.31-.031.238-.176ZM93.8,56.713a1.091,1.091,0,0,0,.279-.755c-.01-.217.021-.744.052-1.168l.072-.775-.724-.755a4.746,4.746,0,0,0-.734-.672c-.01.052-.072-.072-.155-.269-.114-.258-.207-.331-.352-.289s-.176,0-.145-.145c.072-.279-.341-.806-.589-.744-.176.052-.186.01-.134-.321.052-.3.031-.372-.114-.372-.1,0-.145.052-.114.1a.254.254,0,0,1-.052.258c-.145.165-.041.775.124.775.072,0,.083.145.052.372a1.668,1.668,0,0,0,.072.744c.083.217.176.476.227.589a3.039,3.039,0,0,1,.1.517,3.212,3.212,0,0,0,.238.806,2.792,2.792,0,0,1,.217.641.227.227,0,0,0,.134.186,1.161,1.161,0,0,1,.331.445,4.582,4.582,0,0,0,.868,1.179,1.482,1.482,0,0,0,.341-.352Zm11.476-2.771c.041-.352.021-.393-.2-.393-.238,0-.238.01-.083.31a1.514,1.514,0,0,1,.165.538C105.184,54.676,105.226,54.48,105.277,53.942Zm-9.957-.165c.114-.217.1-.227-.217-.227-.258,0-.3.031-.207.124a.921.921,0,0,1,.134.5c.01.331.01.341.083.093Q95.205,54.015,95.321,53.777Zm2.833-1.385a.9.9,0,0,0-.62,0c-.393.1-.383.1.227.1C98.268,52.5,98.34,52.484,98.154,52.391Zm4.539,0a.677.677,0,0,0-.569,0c-.2.093-.134.114.341.1C103.013,52.495,103.024,52.484,102.693,52.391Zm-12.076-.434c-.031-.217-.083-.362-.114-.331a1.066,1.066,0,0,0,.031.414c.031.217.083.362.114.331A1.066,1.066,0,0,0,90.617,51.957ZM90.472,51c0-.279-.041-.445-.083-.372-.083.124-.041.858.041.858A1.532,1.532,0,0,0,90.472,51Zm19.407-.258c-.021-.134-.041-.031-.041.227s.021.362.041.238A1.752,1.752,0,0,0,109.878,50.737Zm-18.373-.806c0-.052-.062-.1-.145-.1a.291.291,0,0,0-.217.1c-.031.062.031.1.145.1S91.506,49.993,91.506,49.931Z" transform="translate(-88.566 -49)" fill="#6a9ce9"/>
        <path id="Path_901" data-name="Path 901" d="M259,302.533c0-.217.207-.31.341-.176.093.093.083.145-.031.217C259.093,302.719,259,302.7,259,302.533Z" transform="translate(-241.379 -276.107)" fill="#6a9ce9"/>
        <path id="Path_902" data-name="Path 902" d="M160.034,259.012a3.663,3.663,0,0,1-.7-.476c-.31-.279-.331-.352-.331-.951a1.174,1.174,0,0,1,.848-1.313,1.283,1.283,0,0,1,1.768.517,1.217,1.217,0,0,1-.052,1.634,2.9,2.9,0,0,1-1.137.765,4.141,4.141,0,0,1-.393-.176Zm.827-.6a.755.755,0,0,0-.331-.041c-.238,0-.3.031-.2.093C160.458,258.547,160.861,258.505,160.861,258.412Zm.424-.941c-.093-.155-.1-.124-.1.176s.01.331.1.186A.329.329,0,0,0,161.285,257.471Z" transform="translate(-151.718 -234.694)" fill="#6a9ce9"/>
        <path id="Path_903" data-name="Path 903" d="M213.55,258.421c0-.062-.083-.083-.186-.052-.217.052-.962-.507-1.086-.827a2.168,2.168,0,0,1,.248-1.478.763.763,0,0,1,.589-.414.872.872,0,0,0,.445-.176c.041-.062.248-.01.548.124a1.162,1.162,0,0,0,.7.165c.165-.041.2-.041.093.031s-.114.176.041.579a1.564,1.564,0,0,1-.176,1.561.98.98,0,0,1-.5.4c-.145.031-.362.083-.486.124S213.55,258.483,213.55,258.421Zm1.034-1.365a.318.318,0,0,0-.1-.259c-.062-.041-.1.072-.1.259s.041.3.1.258A.318.318,0,0,0,214.584,257.056Z" transform="translate(-199.444 -234.103)" fill="#6a9ce9"/>
        <path id="Path_904" data-name="Path 904" d="M134,265c0-.124.434-.682.486-.631.031.031-.062.2-.217.372S134,265.043,134,265Z" transform="translate(-129.302 -242.1)" fill="#6a9ce9"/>
        <path id="Path_905" data-name="Path 905" d="M183.429,257.248c-.083-.083.01-.248.145-.248.052,0,.093.072.093.155C183.667,257.31,183.543,257.362,183.429,257.248Z" transform="translate(-173.593 -235.495)" fill="#6a9ce9"/>
        <path id="Path_906" data-name="Path 906" d="M150.161,251.432c.062-.186.289-.217.289-.041a.163.163,0,0,1-.165.165c-.093,0-.145-.052-.124-.124Z" transform="translate(-143.788 -230.361)" fill="#6a9ce9"/>
        <path id="Path_907" data-name="Path 907" d="M232.287,246.126c.207-.134.445-.134.362,0-.031.062-.165.1-.29.1C232.173,246.229,232.163,246.209,232.287,246.126Z" transform="translate(-217.354 -225.654)" fill="#6a9ce9"/>
        <path id="Path_908" data-name="Path 908" d="M242.355,228.248c-.114-.114.031-.248.248-.248.124,0,.2.052.176.134A.3.3,0,0,1,242.355,228.248Z" transform="translate(-226.419 -209.493)" fill="#6a9ce9"/>
        <path id="Path_909" data-name="Path 909" d="M154.082,180.306c.041-.062-.083-.248-.269-.414a2.089,2.089,0,0,1-.414-.476c-.1-.279-.258-.207-.527.227-.393.62-.9.682-1.241.165-.124-.2-.145-.31-.062-.455a1.168,1.168,0,0,0,.1-.393,1.489,1.489,0,0,1,.507-.569,1.311,1.311,0,0,1,.993-.393c1.354,0,2.326,1.3,1.468,1.975C154.2,180.326,154,180.44,154.082,180.306Z" transform="translate(-145.011 -164.663)" fill="#6a9ce9"/>
        <path id="Path_910" data-name="Path 910" d="M213.217,179.814a2.306,2.306,0,0,0-.289-.465l-.227-.279.248-.5a1.451,1.451,0,0,1,.724-.724c.445-.227,1.685-.383,1.572-.207-.031.041.093.134.258.2a1.4,1.4,0,0,1,.724,1.292.548.548,0,0,1-.393.569l-.362.176-.321-.352a1.187,1.187,0,0,0-.445-.362.106.106,0,0,1-.114-.1c0-.155-.186-.124-.331.062-.072.093-.238.279-.372.424s-.207.3-.176.352-.052.093-.186.093A.305.305,0,0,1,213.217,179.814Zm1.685-1.375c-.207-.134-.486-.134-.569,0-.041.062.093.1.331.1C214.954,178.542,215.016,178.511,214.9,178.438Z" transform="translate(-199.866 -164.274)" fill="#6a9ce9"/>
        <path id="Path_911" data-name="Path 911" d="M246.065,141.464a1.056,1.056,0,0,0-.072-.289c-.062-.165-.052-.165.1-.041.2.155.238.424.072.424a.1.1,0,0,1-.1-.093Z" transform="translate(-229.684 -131.528)" fill="#6a9ce9"/>
        <path id="Path_912" data-name="Path 912" d="M110.358,183.155c-.1-.124-.1-.155.031-.155a.277.277,0,0,1,.217.155c.031.083.021.155-.031.155A.426.426,0,0,1,110.358,183.155Z" transform="translate(-108.038 -169.146)" fill="#6a9ce9"/>
        <path id="Path_913" data-name="Path 913" d="M173,127.1c0-.052.072-.1.155-.1s.155.052.155.1-.072.1-.155.1S173,127.165,173,127.1Z" transform="translate(-164.27 -118.935)" fill="#6a9ce9"/>
        <path id="Path_914" data-name="Path 914" d="M262,91.41a.432.432,0,0,1,.165-.238c.145-.124.165-.114.134.052C262.258,91.43,262,91.585,262,91.41Z" transform="translate(-244.068 -86.736)" fill="#6a9ce9"/>
        <path id="Path_915" data-name="Path 915" d="M234.425,341.145c-.1-.114-.093-.145.083-.145.258,0,.383.165.186.238A.257.257,0,0,1,234.425,341.145Z" transform="translate(-219.285 -310.81)" fill="#6a9ce9"/>
        <path id="Path_916" data-name="Path 916" d="M117,258.573c0-.207.134-.362.238-.258.072.083-.041.455-.145.455C117.041,258.77,117,258.676,117,258.573Z" transform="translate(-114.06 -236.644)" fill="#6a9ce9"/>
        <path id="Path_917" data-name="Path 917" d="M281.439,138.165c.031-.093.114-.165.165-.165.134,0,.052.238-.1.29C281.429,138.31,281.4,138.269,281.439,138.165Z" transform="translate(-261.481 -128.798)" fill="#6a9ce9"/>
        <path id="Path_918" data-name="Path 918" d="M220.518,70.849c-.3-.083-.01-.207.352-.155.165.021.279.083.248.134C221.066,70.922,220.849,70.932,220.518,70.849Z" transform="translate(-206.763 -68.44)" fill="#6a9ce9"/>
        <path id="Path_919" data-name="Path 919" d="M257,69.6c0-.052.072-.134.165-.165s.145-.01.124.062C257.238,69.656,257,69.739,257,69.6Z" transform="translate(-239.585 -67.309)" fill="#6a9ce9"/>
        <path id="Path_920" data-name="Path 920" d="M257.165,63a.139.139,0,0,1,.269,0c.021.062-.041.114-.134.114S257.145,63.065,257.165,63Z" transform="translate(-239.73 -61.463)" fill="#6a9ce9"/>
      </g>
      <g id="Group_906" data-name="Group 906" transform="translate(9.517 5.583)">
        <path id="Path_921" data-name="Path 921" d="M101.557,83.839c-.424-.072-1.075-.217-1.447-.31a9.423,9.423,0,0,1-2.481-1.117c0-.052-.052-.062-.114-.021a9.852,9.852,0,0,1-2.254-2.347c-.083-.2-.207-.517-.3-.713a4.869,4.869,0,0,1-.124-2.388,5.578,5.578,0,0,1,.517-1.272l.393-.662-.052-1.747a25.148,25.148,0,0,1,.072-3.122,5.6,5.6,0,0,0,.031-1.468c-.062-.062-.289-.031-.61.072a4.067,4.067,0,0,1-1.944.145,2.577,2.577,0,0,1-1.055-1.1,2.167,2.167,0,0,1,0-1.53,1.993,1.993,0,0,1,1.065-1.055,1.593,1.593,0,0,0,.393-.145,1.75,1.75,0,0,1,.414-.155,3.746,3.746,0,0,0,.7-.238,1.42,1.42,0,0,1,.434-.124.241.241,0,0,0,.207-.1.389.389,0,0,1,.279-.1c.4,0,1.1-.4,1.158-.682.062-.227-.041-.372-.744-1.055a7.639,7.639,0,0,1-.982-1.106,15.709,15.709,0,0,1-1.82-4.983c-.31-1.489-.3-1.541.258-2.068.414-.372.548-.445.91-.445s.476.062.889.507a7,7,0,0,1,.672.817,9.908,9.908,0,0,0,2.12,2.4,1,1,0,0,0,.393-.289,3.293,3.293,0,0,1,1.52-.806,2.669,2.669,0,0,1,1.83.052c.248.114.62.279.827.362a1.516,1.516,0,0,1,.455.279c.041.072.124.062.227-.031a4.759,4.759,0,0,1,1.375-.693,3.525,3.525,0,0,1,3.153.837c.279.258.352.289.517.176a21.373,21.373,0,0,0,2.244-2.533c.527-.693,1-1.075,1.354-1.075a1.7,1.7,0,0,1,1.272.817c.145.331.145.465-.01,1.3-.093.517-.217,1.075-.269,1.241s-.2.682-.31,1.137a10.9,10.9,0,0,1-1.282,2.833.476.476,0,0,0-.165.279,6.746,6.746,0,0,1-1.468,1.52.328.328,0,0,0-.186.3c0,.414.269.672.848.806a3.347,3.347,0,0,1,.755.269.833.833,0,0,0,.414.145.851.851,0,0,1,.424.155.817.817,0,0,0,.424.155c.124,0,.258.041.289.1a.4.4,0,0,0,.29.1c.289,0,.931.569,1.158,1.013a2.064,2.064,0,0,1-.651,2.45,1.3,1.3,0,0,1-1.024.362,4.565,4.565,0,0,1-1.179-.207,1.809,1.809,0,0,0-.693-.155,8.117,8.117,0,0,0,.062,1.323c.176,1.727.165,2.244-.031,2.244q-.155,0-.155.31t.155.31c.176,0,.207.806.062,1.675a.883.883,0,0,0,.114.775c.1.165.341.589.527.962a2.844,2.844,0,0,1,.321,1.654,3.7,3.7,0,0,1-1.137,3.029c-1,1.117-2.264,2.037-2.812,2.037a.445.445,0,0,0-.321.145,6.574,6.574,0,0,1-2.347.713,12.846,12.846,0,0,1-3.557.031ZM104.969,83a10.962,10.962,0,0,0,2.151-.507,4.568,4.568,0,0,0,1.4-.755.264.264,0,0,1,.176-.134,4.372,4.372,0,0,0,1.2-1.034,3.666,3.666,0,0,0,.393-4.725,4.625,4.625,0,0,1-.455-.775c0-.052-.083-.124-.176-.155a6.041,6.041,0,0,1-.765-.507,1.664,1.664,0,0,0-.651-.383c-.031.041-.062.01-.062-.052s-.083-.124-.186-.124a.508.508,0,0,1-.289-.093,10.219,10.219,0,0,0-2.347-.786,12.6,12.6,0,0,0-4.56.1,9.044,9.044,0,0,0-3.267,1.4A3.58,3.58,0,0,0,95.86,76.5a2.916,2.916,0,0,0-.279,1.644,2.777,2.777,0,0,0,.372,1.51A5.137,5.137,0,0,0,97.587,81.5c.083,0,.145.031.145.083,0,.083.072.124,1.1.62a5.44,5.44,0,0,0,2.471.755,4.837,4.837,0,0,1,.765.145,11.721,11.721,0,0,0,2.905-.1Zm-7.93-9.15a4.793,4.793,0,0,0,.682-.4,11.657,11.657,0,0,1,2.647-1.127,10.333,10.333,0,0,1,3.257-.3,7.487,7.487,0,0,1,2.854.434,1.561,1.561,0,0,0,.589.155c.155,0,.279.041.279.093s.155.145.341.217a3.282,3.282,0,0,1,1.21.631c0,.052.093.093.207.093s.207.041.207.083c0,.114.579.445.662.362a12.747,12.747,0,0,0,.062-1.675,28.35,28.35,0,0,0-.414-4.715c-.062-.341-.155-.879-.217-1.189-.124-.775-.238-1.3-.507-2.585-.124-.6-.248-1.2-.279-1.344-.1-.548-.124-.569-.455-.227a1.081,1.081,0,0,1-.476.331.247.247,0,0,0-.2.155,1.22,1.22,0,0,1-.517.321,2.148,2.148,0,0,1-1.83-.2l-.517-.269-.352.269a1.616,1.616,0,0,1-1.82.093c-.61-.331-.672-.331-1.23-.031a2.45,2.45,0,0,1-1.964.031,3.608,3.608,0,0,1-.806-.6c-.279-.279-.424-.372-.455-.279-.093.289-.269,1.117-.62,2.885a39.647,39.647,0,0,0-.962,8.075c.083.972.134,1.1.372.879a.652.652,0,0,1,.248-.165ZM94.991,68c1.013-.383,1.075-.476,1.3-1.789a6.673,6.673,0,0,0,.155-1.22,18.7,18.7,0,0,0-2.73.879c-.662.238-.837.455-.848,1.024a1.172,1.172,0,0,0,.538,1.168c.393.248.8.227,1.582-.062Zm17.918.124a1.069,1.069,0,0,0,.672-1.024c.031-.662-.248-.993-1.075-1.3a3.6,3.6,0,0,1-.713-.321.3.3,0,0,0-.217-.072,4.472,4.472,0,0,1-.848-.238,2.266,2.266,0,0,0-.744-.186,2.167,2.167,0,0,0,.093.713c.072.362.176.91.217,1.21.083.589.114.62,1.241,1.127A1.47,1.47,0,0,0,112.909,68.123Zm-11.973-5.78a1.186,1.186,0,0,0,.434-.486c.269-.527.486-.662.724-.455a1.015,1.015,0,0,1,.238.5c.072.372.424.579.993.579a.659.659,0,0,0,.641-.341,1.975,1.975,0,0,0,.29-.527c.072-.331.362-.445.6-.227a.626.626,0,0,1,.217.362c.01.4.538.734,1.168.734a1.781,1.781,0,0,0,1.5-.982l.352-.517-.041-.993a2.817,2.817,0,0,0-.331-1.5,2.353,2.353,0,0,0-2.213-1.179,4.3,4.3,0,0,0-2.057.889c-.083.217-.248.176-.724-.207a2.862,2.862,0,0,0-2.926-.455c-.2.093-.434.186-.527.217a1.735,1.735,0,0,0-.455.662,3.318,3.318,0,0,0-.341,1.53,2.336,2.336,0,0,0,.176,1.4,2.7,2.7,0,0,0,.651.806,1.169,1.169,0,0,0,.9.331A2.023,2.023,0,0,0,100.936,62.344Zm-3.629-.61a2.58,2.58,0,0,1,.248-.662,3.389,3.389,0,0,0,.072-.92,5.07,5.07,0,0,1,.114-1.179c.114-.31.093-.362-.186-.662a2.074,2.074,0,0,1-.372-.507.276.276,0,0,0-.217-.186A12.352,12.352,0,0,1,95,55.261c-.248-.393-.321-.445-.6-.414-.486.052-.558.258-.4,1.086.538,2.75,1.427,4.932,2.4,5.9.3.3.589.527.651.507a1.5,1.5,0,0,0,.258-.61Zm12.852.093a8.093,8.093,0,0,0,.651-.951c.165-.279.331-.538.362-.569a20.723,20.723,0,0,0,1.344-4.363c.145-.9.072-1.117-.393-1.117-.258,0-.641.258-.641.424a5.363,5.363,0,0,1-1.137,1.5,2.052,2.052,0,0,0-.517.62,2.4,2.4,0,0,1-.579.651l-.579.527.114.527a6.143,6.143,0,0,1,.114,1.1,4.781,4.781,0,0,0,.269,1.375C109.477,62.478,109.58,62.509,110.159,61.827Z" transform="translate(-92.05 -54)" fill="#fff"/>
        <path id="Path_922" data-name="Path 922" d="M162.594,262.047a1.271,1.271,0,0,1-.424-.775c-.062-.414-.041-.465.352-.858.3-.3.5-.414.724-.414a1.756,1.756,0,0,1,1.158.62,1.133,1.133,0,0,1-.1,1.137.741.741,0,0,0-.207.31c0,.145-.455.31-.837.31A1.053,1.053,0,0,1,162.594,262.047Zm1.044-.765c.083-.321-.062-.486-.383-.434a.353.353,0,0,0,.052.7C163.5,261.551,163.586,261.478,163.638,261.282Z" transform="translate(-154.896 -238.701)" fill="#fff"/>
        <path id="Path_923" data-name="Path 923" d="M216.634,262.311a2.227,2.227,0,0,1-.445-.372c-.445-.476-.238-1.675.279-1.675a.318.318,0,0,0,.258-.1c.093-.145.538-.124.858.041a1.009,1.009,0,0,1,.662,1.013c-.01.383-.062.5-.424.827C217.389,262.456,217.017,262.539,216.634,262.311Zm.744-1.086c.031-.3,0-.341-.217-.341-.362,0-.538.238-.383.517C216.965,261.753,217.337,261.639,217.378,261.225Z" transform="translate(-203.136 -238.759)" fill="#fff"/>
        <path id="Path_924" data-name="Path 924" d="M157.827,182.905a.928.928,0,0,0-.548-.372c-.569-.041-.744,0-.8.207a.486.486,0,0,1-.693.217c-.145-.124-.114-.527.041-.527.041,0,.1-.093.134-.207a.4.4,0,0,1,.248-.269,4.8,4.8,0,0,0,.507-.207,1.379,1.379,0,0,1,1.458.424c.372.372.434.672.176.92-.207.217-.186.227-.527-.186Z" transform="translate(-149.116 -168.472)" fill="#fff"/>
        <path id="Path_925" data-name="Path 925" d="M217.372,183.046c-.29-.227-.279-.289.021-.7a1.443,1.443,0,0,1,2.306-.165c.393.393.424.589.145.889l-.2.217-.289-.372a.725.725,0,0,0-.724-.372.782.782,0,0,0-.734.341C217.6,183.222,217.589,183.222,217.372,183.046Z" transform="translate(-204.226 -168.478)" fill="#fff"/>
      </g>
      <g id="Group_907" data-name="Group 907" transform="translate(9.541 6.546)">
        <path id="Path_928" data-name="Path 928" d="M134.709,315.92c-.486-.2-1.075-.92-.744-.92.186,0,.641.269.641.372,0,.072.114.155.258.186.165.041.258.134.258.269C135.123,316.055,135.082,316.065,134.709,315.92Z" transform="translate(-129.568 -288.978)" fill="#fff"/>
        <path id="Path_931" data-name="Path 931" d="M130.268,311.624c-.083-.134.041-.331.165-.258s.124.362,0,.362A.2.2,0,0,1,130.268,311.624Z" transform="translate(-126.316 -285.705)" fill="#fff"/>
        <path id="Path_932" data-name="Path 932" d="M120.019,271a.414.414,0,0,1-.176-.248.221.221,0,0,0-.145-.176.254.254,0,0,1-.145-.227,5.593,5.593,0,0,0-.176-.8,3.572,3.572,0,0,1-.1-1.448c.041-.455.083-.91.083-1s.052-.145.093-.124.134-.072.186-.217c.1-.269.31-.269.31.01,0,.083.041.145.093.145s.083.114.072.238c-.01.176-.062.238-.186.2-.207-.052-.383.269-.217.383a.607.607,0,0,1,.165.248c.052.124.01.176-.134.176-.186,0-.207.072-.207.569a2.188,2.188,0,0,0,.207.982,1.865,1.865,0,0,1,.207.62c0,.114.041.207.093.207a.7.7,0,0,1,.424.414C120.463,271.1,120.194,271.136,120.019,271Z" transform="translate(-116.459 -245.548)" fill="#fff"/>
        <path id="Path_933" data-name="Path 933" d="M172.082,264.861c0-.052-.145-.134-.331-.186-.476-.124-.465-.289.01-.372.4-.062.414-.062.31-.4-.134-.455-.021-.9.217-.9.2,0,.517.362.517.569,0,.052-.052.021-.114-.072-.124-.227-.258-.238-.341-.021-.093.238.041.662.207.662.207,0,.176.176-.072.527C172.278,264.964,172.082,265.057,172.082,264.861Z" transform="translate(-163.219 -242.354)" fill="#f5ca59"/>
        <path id="Path_934" data-name="Path 934" d="M165.088,273.944a.583.583,0,0,1,.041-.62.247.247,0,0,1,.248.072c.124.124.114.186-.031.383C165.243,273.913,165.13,273.985,165.088,273.944Z" transform="translate(-157.497 -251.602)" fill="#f5ca59"/>
        <path id="Path_935" data-name="Path 935" d="M216.2,262.6a.683.683,0,0,1-.2-.383c0-.248.093-.258.258-.041a1.349,1.349,0,0,0,.517.31c.372.124.414.124.558-.093.217-.31.279-1.21.072-1.21s-.693.269-.61.341c.031.041-.052.072-.207.072a.454.454,0,0,0-.372.186c-.093.145-.1.134-.114-.1,0-.217.052-.29.207-.29a.183.183,0,0,0,.207-.2c0-.414.951-.455,1.334-.062a.874.874,0,0,0,.331.258.1.1,0,0,1,.093.1c0,.062-.093.1-.2.1-.29,0-.362.176-.114.259.217.072.29.465.083.465a.883.883,0,0,0-.362.227A1.388,1.388,0,0,1,216.2,262.6Z" transform="translate(-203.208 -240.438)" fill="#f5ca59"/>
        <path id="Path_936" data-name="Path 936" d="M164,261.38c0-.352.6-1.024.786-.879a.262.262,0,0,0,.331.01c.31-.165.341-.021.093.352-.2.3-.238.32-.341.176s-.145-.155-.341.021c-.165.155-.186.217-.093.289s.1.1-.021.186C164.155,261.7,164,261.649,164,261.38Z" transform="translate(-156.584 -240.062)" fill="#f5ca59"/>
        <path id="Path_939" data-name="Path 939" d="M266.277,233.414c0-.227.021-.31.041-.176a1.385,1.385,0,0,1,0,.414C266.287,233.745,266.266,233.642,266.277,233.414Z" transform="translate(-248.284 -215.612)" fill="#fff"/>
        <path id="Path_940" data-name="Path 940" d="M99.35,78.064c.5-1.5.5-1.561-.165-1.479a1.951,1.951,0,0,0-.651.2c-.258.186-.672.186-.672.01,0-.145.486-.383,1.21-.579a.922.922,0,0,0,.755-1.055c-.062-.207-.041-.321.052-.4a.9.9,0,0,0,.145-.6,2.417,2.417,0,0,1,.062-.693.379.379,0,0,0-.155-.414c-.207-.186-.227-.186-.507-.021a1.347,1.347,0,0,1-.507.176c-.258,0-.507.269-.31.341.072.021.1.083.062.124s-.269.021-.5-.052c-.362-.124-.434-.114-.548.021a.856.856,0,0,1-.5.227c-.414.072-.827.424-.589.507.176.062.093.145-.258.227-.248.062-.279.052-.279-.2a.418.418,0,0,1,.238-.383,2.9,2.9,0,0,0,.414-.279.76.76,0,0,1,.362-.186c.093-.021.641-.2,1.21-.4s1.261-.455,1.541-.548c.61-.207.837-.507.744-1a.614.614,0,0,0-.352-.486.6.6,0,0,1-.31-.372c-.031-.176-.083-.217-.217-.176s-.269-.052-.465-.31c-.155-.2-.321-.341-.362-.31s-.062-.062-.041-.207a.4.4,0,0,0-.165-.424c-.227-.2-.289-.455-.1-.455a1.567,1.567,0,0,1,.455.238c.258.176.321.279.248.352s-.052.145.1.227c.114.062.186.176.155.248s.155.321.4.558c.414.393.476.414.7.31a.6.6,0,0,0,.3-.486c.041-.279.093-.352.248-.331s.186-.01.134-.248a.972.972,0,0,1,.031-.5,2.815,2.815,0,0,0,.01-.806,1.339,1.339,0,0,1,0-.62c.134-.052.227-1.013.1-1.013a.131.131,0,0,1-.114-.145.642.642,0,0,0-.258-.352.675.675,0,0,1-.258-.434c0-.155-.052-.207-.145-.176-.165.062-.372-.114-.372-.31a4.064,4.064,0,0,0-.786-.91c-.486-.476-.765-.837-.744-.941.052-.279.279-.289.383-.021a2.4,2.4,0,0,0,.424.6c1.013,1.1,1.375,1.447,1.52,1.447a.1.1,0,0,1,.1.145c-.052.134.321.579.486.579a2.751,2.751,0,0,0,.548-.414,1.818,1.818,0,0,1,.651-.414.273.273,0,0,0,.238-.207c.052-.186.083-.2.321-.093.331.155.341.227.01.445a.532.532,0,0,0-.258.352c0,.1-.031.134-.083.062a.476.476,0,0,0-.362-.093c-.227.01-.341.1-.465.352a.854.854,0,0,1-.3.393c-.145.062-.186.4-.041.465a.506.506,0,0,1,.155.248c.052.176.021.207-.165.207s-.248.052-.269.227c-.021.124.01.227.072.227s.114.083.114.186c0,.145.021.155.1.021.062-.1.083-.041.083.207-.01.2-.031.3-.052.238a.245.245,0,0,0-.207-.134c-.124,0-.145.072-.093.341.041.176.093.507.134.724.041.289.124.424.3.486a.482.482,0,0,1,.269.331.285.285,0,0,0,.289.269c.538.062.724.134.724.29,0,.207-.434.362-.569.2a3.665,3.665,0,0,0-1.22-.931c-.124-.021-.289-.052-.372-.062a.156.156,0,0,0-.186.093c-.031.083.041.165.165.2.31.083.321.755.01.755-.238,0-.269.155-.072.362a.68.68,0,0,1,.093.527c-.031.227-.072.341-.093.279-.062-.186-.29-.165-.445.031-.114.134-.1.165.083.217.279.072.3.3.031.372-.227.052-.434.91-.227.982a.176.176,0,0,1-.062.341c-.114,0-.134.031-.052.062.176.072.155.445-.031.445s-.207.269-.021.341c.072.041.062.062-.041.062a.3.3,0,0,0-.238.176,1.355,1.355,0,0,0,.093,1.044c.176.165.124.341-.114.341-.083,0-.145.041-.145.093a1.131,1.131,0,0,1-.062.258c-.041.114-.01.165.1.165.3,0,.176.362-.165.507a1.377,1.377,0,0,0-.424.258C99.329,78.177,99.308,78.157,99.35,78.064Z" transform="translate(-95.615 -63.311)" fill="#fff"/>
        <path id="Path_943" data-name="Path 943" d="M99.642,189.724c0-.052-.072-.072-.155-.041-.1.041-.155,0-.155-.145a1.4,1.4,0,0,0-.062-.372c-.041-.124,0-.165.155-.165.124,0,.217.062.217.155,0,.207.331.362.6.29.134-.031.227-.01.227.062s-.124.134-.279.176a2.346,2.346,0,0,0-.414.1C99.7,189.806,99.642,189.775,99.642,189.724Z" transform="translate(-98.533 -176.005)" fill="#fff"/>
        <path id="Path_944" data-name="Path 944" d="M162.875,184.394a1.6,1.6,0,0,0-.031-.176,1.613,1.613,0,0,1-.041-.279c0-.1-.2-.31-.424-.455-.4-.269-.424-.279-.837-.114-.362.145-.424.145-.476.01-.093-.238.031-.29.734-.331.589-.041.682-.021.9.2a.691.691,0,0,1,.217.424.228.228,0,0,0,.124.248.276.276,0,0,1,.01.5c-.083.031-.165.021-.176-.021Z" transform="translate(-153.929 -170.654)" fill="#fff"/>
        <path id="Path_946" data-name="Path 946" d="M157.412,188.762a.292.292,0,0,1-.114-.362c.093-.3.383-.217.434.124S157.67,188.948,157.412,188.762Z" transform="translate(-150.555 -175.301)" fill="#fff"/>
        <path id="Path_947" data-name="Path 947" d="M219,183.972a1.043,1.043,0,0,1,.352-.62.964.964,0,0,1,.92-.352c.579,0,.806.134.6.341-.072.072-.227.072-.538-.031-.393-.134-.445-.124-.569.041a.413.413,0,0,0-.093.279c.031.041-.052.093-.176.114a.289.289,0,0,0-.269.269C219.176,184.334,219,184.3,219,183.972Z" transform="translate(-205.898 -170.625)" fill="#fff"/>
        <path id="Path_949" data-name="Path 949" d="M237.262,188.31a.214.214,0,0,1,.217-.31c.083,0,.145.052.145.1s.062.1.145.1a.291.291,0,0,1,.217.1c.041.062-.083.1-.3.1C237.49,188.414,237.293,188.372,237.262,188.31Z" transform="translate(-222.247 -175.108)" fill="#fff"/>
        <path id="Path_950" data-name="Path 950" d="M92.713,176.162c.062-.1-.3-.651-.372-.579-.021.031-.052-.072-.062-.217-.01-.2.01-.227.083-.124s.093.1.093.021a.262.262,0,0,0-.1-.186c-.072-.041-.072-.124,0-.258.083-.155.134-.176.362-.072.279.134.352.486.1.486-.083,0-.155.052-.155.114s.093.093.2.062c.134-.031.217.01.238.124.041.207-.207.734-.341.734C92.692,176.266,92.682,176.214,92.713,176.162Z" transform="translate(-92.276 -163.167)" fill="#fff"/>
      </g>
      <ellipse id="Ellipse_507" data-name="Ellipse 507" cx="5.5" cy="2" rx="5.5" ry="2" transform="translate(15 26.355)" fill="#6a9ce9"/>
    </g>
  </g>
  <path id="Path_1036" data-name="Path 1036" d="M10123,16143.327l.063,1.262v1.395" transform="translate(-10094.981 -16121.109)" fill="none" stroke="#fff" stroke-linecap="round" stroke-width="0.5"/>
  <path id="Path_1038" data-name="Path 1038" d="M223.072,242.453a3.083,3.083,0,0,0,2.9-2.051h-.834a2.291,2.291,0,0,1-2.065,1.286,2.317,2.317,0,0,1-2.311-2.311,2.291,2.291,0,0,1,1.286-2.065v-.834a3.076,3.076,0,0,0,1.026,5.977Zm2.571-2.94a2.344,2.344,0,0,0,1.231-.342v-.711a1.99,1.99,0,0,1-1.217.424,1.5,1.5,0,0,1-1.422-.834h1.819l.164-.547h-2.147a1.33,1.33,0,0,1-.014-.233,1.489,1.489,0,0,1,.014-.246h2.3l.164-.547h-2.311a1.485,1.485,0,0,1,1.436-.848,2.2,2.2,0,0,1,1.053.274l.191-.615a2.73,2.73,0,0,0-1.245-.287,2.182,2.182,0,0,0-2.133,1.463h-.6l-.164.52h.656a2.018,2.018,0,0,0-.014.287,1.831,1.831,0,0,0,.014.274h-.492l-.164.52h.78A2.123,2.123,0,0,0,225.643,239.512Z" transform="translate(-202.935 -209.539)" fill="#fff"/>
</svg>
