<svg id="CELO_Color_L_Circle" data-name="CELO Color L Circle" xmlns="http://www.w3.org/2000/svg" width="126.229" height="126.451" viewBox="0 0 126.229 126.451">
  <g id="Group_1160" data-name="Group 1160" transform="translate(0 0)">
    <path id="Path_1092" data-name="Path 1092" d="M147.829,71.327a49.839,49.839,0,0,0-95.89-19.045,49.823,49.823,0,1,0,65.551,64.886A50.282,50.282,0,0,0,147.829,71.327Zm-76.4,64.222A37.363,37.363,0,0,1,48.175,68.891v2.436A49.9,49.9,0,0,0,98,121.155h3.1A37.8,37.8,0,0,1,71.427,135.549Zm36.319-28.125A35.684,35.684,0,0,1,98,108.753,37.522,37.522,0,0,1,60.576,71.327a31.475,31.475,0,0,1,1.329-9.3A35.686,35.686,0,0,1,71.649,60.7a37.522,37.522,0,0,1,37.426,37.426A58.764,58.764,0,0,1,107.746,107.424Zm13.509-6.865V98.123A49.9,49.9,0,0,0,71.427,48.3h-3.1A37.042,37.042,0,0,1,97.78,33.9a37.482,37.482,0,0,1,23.474,66.658Z" transform="translate(-21.6 -21.5)" fill="#393838"/>
  </g>
</svg>
